# xmcd
#
# Track frame offsets: 
#        150
#        15050
#        31055
#        49267
#        67352
#        86712
#        103037
#        123132
#        138757
#        159965
#
# Disc length: 2343 seconds
#
# Revision: 6
# Processed by: cddbd v1.5.2PL0 Copyright (c) Steve Scherf et al.
# Submitted via: ExactAudioCopyFreeDBPlugin 1.0
#
DISCID=7409250a
DTITLE=Kenny Rogers - Across My Heart
DYEAR=1997
DGENRE=Country
TTITLE0=To Me
TTITLE1=Write Your Name (Across My Heart)
TTITLE2=The Only Way I Know
TTITLE3=Have a Little Faith in Me
TTITLE4=Sing Me Your Love Song
TTITLE5=As God is my Witness
TTITLE6=You're not Asking Much
TTITLE7=Only Once in a Lifetime
TTITLE8=Find a Little Grace
TTITLE9=See Me Through
EXTD=ID3G: 2
EXTT0=
EXTT1=
EXTT2=
EXTT3=
EXTT4=
EXTT5=
EXTT6=
EXTT7=
EXTT8=
EXTT9=
PLAYORDER=
